<?xml version="1.0" standalone="no"?>
<!DOCTYPE svg PUBLIC "-//W3C//DTD SVG 20010904//EN"
 "http://www.w3.org/TR/2001/REC-SVG-20010904/DTD/svg10.dtd">
<svg version="1.0" xmlns="http://www.w3.org/2000/svg"
 width="305.000000pt" height="50.000000pt" viewBox="0 0 305.000000 50.000000"
 preserveAspectRatio="xMidYMid meet">

<g transform="translate(0.000000,50.000000) scale(0.100000,-0.100000)"
fill="#000000" stroke="none">
<path d="M181 479 c-108 -35 -181 -127 -181 -229 0 -97 72 -192 171 -226 71
-25 205 -25 274 -1 47 16 125 70 125 86 0 3 -14 15 -30 25 -30 17 -31 17 -61
-8 -34 -29 -116 -56 -169 -56 -144 0 -255 109 -222 219 29 94 96 135 222 135
86 0 121 -10 178 -54 19 -15 27 -16 52 -7 39 15 38 29 -5 61 -95 73 -235 94
-354 55z"/>
<path d="M1714 489 c-68 -16 -145 -68 -179 -123 -26 -42 -30 -59 -30 -115 1
-84 28 -139 93 -185 84 -62 201 -81 313 -52 49 13 62 13 104 0 115 -34 257 -3
334 74 74 75 90 165 47 259 -56 120 -232 183 -384 138 -47 -14 -57 -14 -104 0
-56 16 -130 18 -194 4z m143 -65 c21 -6 21 -7 -10 -50 -53 -75 -49 -195 9
-264 l25 -29 -26 -7 c-40 -10 -131 4 -175 26 -106 54 -128 187 -43 267 50 48
153 75 220 57z m341 -9 c96 -29 150 -104 137 -192 -15 -99 -142 -171 -261
-148 l-36 6 20 22 c69 73 67 239 -2 297 -17 13 -17 14 1 21 30 12 87 10 141
-6z m-211 -57 c49 -55 57 -125 21 -189 -29 -52 -47 -57 -80 -20 -48 54 -49
144 -2 201 31 36 35 36 61 8z"/>
<path d="M717 483 c-4 -3 -7 -111 -7 -240 l0 -233 40 0 40 0 2 193 3 192 119
-147 c65 -82 121 -148 125 -148 4 0 59 65 122 145 63 79 117 144 122 145 4 0
7 -86 7 -191 l0 -190 38 3 37 3 0 235 0 235 -46 3 -46 3 -113 -141 c-61 -77
-116 -140 -120 -140 -5 0 -59 63 -121 140 -112 139 -113 140 -154 140 -23 0
-45 -3 -48 -7z"/>
<path d="M2576 256 c-69 -129 -126 -237 -126 -240 0 -4 18 -6 39 -6 37 0 41 3
70 55 l31 55 160 0 160 0 27 -55 c27 -54 28 -55 70 -55 l43 0 -21 42 c-49 96
-222 414 -231 426 -6 6 -30 12 -53 12 l-43 0 -126 -234z m236 44 l58 -110
-121 0 c-66 0 -119 3 -117 8 17 40 113 212 117 212 3 0 32 -50 63 -110z"/>
</g>
</svg>
